<svg xmlns="http://www.w3.org/2000/svg" width="22" height="24" fill="none" viewBox="0 0 22 24">
    <path fill="#fff" fill-rule="evenodd" d="M18.48 4.908c-2-1.998-4.654-3.1-7.48-3.1-2.828 0-5.482 1.102-7.48 3.1-3.856 3.853-4.135 10.01-.701 14.182-.474.97-1.033 1.617-1.666 1.927-.386.19-.603.607-.54 1.032.066.43.394.762.823.828.235.036.488.058.75.058 1.298 0 2.663-.447 3.801-1.231 1.534.823 3.257 1.258 5.012 1.258 2.827 0 5.482-1.099 7.48-3.096 1.999-1.998 3.098-4.656 3.098-7.477 0-2.821-1.099-5.483-3.098-7.48zm-.847 14.107c-1.772 1.772-4.13 2.746-6.634 2.746-1.675 0-3.319-.447-4.75-1.289-.093-.053-.2-.084-.302-.084-.128 0-.261.044-.367.124-1.356 1.05-2.721 1.205-3.32 1.218.714-.531 1.312-1.355 1.813-2.502.093-.213.053-.461-.102-.638-3.28-3.703-3.106-9.346.394-12.845C6.138 3.973 8.495 3 11 3c2.504 0 4.861.974 6.634 2.746 3.66 3.663 3.66 9.616 0 13.27z" clip-rule="evenodd"/>
    <path fill="#fff" fill-rule="evenodd" d="M15.602 8.758H6.397c-.345 0-.62.276-.62.621s.275.622.62.622h9.206c.345 0 .62-.277.62-.622s-.28-.621-.62-.621zM15.602 11.763H6.397c-.345 0-.62.276-.62.621 0 .346.275.622.62.622h9.206c.345 0 .62-.276.62-.622 0-.345-.28-.62-.62-.62zM15.602 14.769H6.397c-.345 0-.62.276-.62.621s.275.621.62.621h9.206c.345 0 .62-.276.62-.621s-.28-.621-.62-.621z" clip-rule="evenodd"/>
</svg>
